<svg xmlns="http://www.w3.org/2000/svg" xmlns:xlink="http://www.w3.org/1999/xlink" width="100" zoomAndPan="magnify" viewBox="0 0 75 30.000001" height="40" preserveAspectRatio="xMidYMid meet" version="1.0"><defs><g/><clipPath id="id1"><path d="M 1.210938 0 L 73.789062 0 L 73.789062 29.03125 L 1.210938 29.03125 Z M 1.210938 0 " clip-rule="nonzero"/></clipPath></defs><g clip-path="url(#id1)"><path fill="rgb(100%, 100%, 100%)" d="M 1.210938 0 L 73.789062 0 L 73.789062 36.289062 L 1.210938 36.289062 Z M 1.210938 0 " fill-opacity="1" fill-rule="nonzero"/><path fill="rgb(100%, 100%, 100%)" d="M 1.210938 0 L 73.789062 0 L 73.789062 29.03125 L 1.210938 29.03125 Z M 1.210938 0 " fill-opacity="1" fill-rule="nonzero"/><path fill="rgb(100%, 100%, 100%)" d="M 1.210938 0 L 73.789062 0 L 73.789062 29.03125 L 1.210938 29.03125 Z M 1.210938 0 " fill-opacity="1" fill-rule="nonzero"/><path fill="rgb(100%, 100%, 100%)" d="M 1.210938 0 L 73.789062 0 L 73.789062 29.03125 L 1.210938 29.03125 Z M 1.210938 0 " fill-opacity="1" fill-rule="nonzero"/></g><g fill="rgb(0%, 0%, 0%)" fill-opacity="1"><g transform="translate(4.838708, 17.61054)"><g><path d="M 1.578125 0 C 1.6875 0 1.746094 -0.0546875 1.746094 -0.164062 L 1.746094 -2.007812 L 2.949219 -2.007812 C 4.367188 -2.007812 5.128906 -2.761719 5.128906 -4.121094 C 5.128906 -5.367188 4.488281 -6.1875 2.785156 -6.1875 L 0.777344 -6.1875 C 0.667969 -6.1875 0.613281 -6.132812 0.613281 -6.023438 L 0.613281 -0.164062 C 0.613281 -0.0546875 0.667969 0 0.777344 0 Z M 1.746094 -5.1875 L 2.640625 -5.1875 C 3.082031 -5.1875 4.003906 -5.175781 4.003906 -4.113281 C 4.003906 -3.019531 3.035156 -3.003906 2.640625 -3.003906 L 1.746094 -3.003906 Z M 1.746094 -5.1875 "/></g></g><g transform="translate(10.266013, 17.61054)"><g><path d="M 1.425781 0 C 1.535156 0 1.589844 -0.0546875 1.589844 -0.164062 L 1.589844 -2.300781 C 1.589844 -3.03125 1.894531 -3.410156 2.429688 -3.410156 C 2.515625 -3.410156 2.628906 -3.398438 2.75 -3.367188 C 2.855469 -3.34375 2.929688 -3.378906 2.953125 -3.480469 L 3.113281 -4.097656 C 3.140625 -4.195312 3.101562 -4.269531 3.003906 -4.300781 C 2.871094 -4.335938 2.738281 -4.355469 2.621094 -4.355469 C 2.191406 -4.355469 1.753906 -4.164062 1.453125 -3.671875 L 1.339844 -4.121094 C 1.316406 -4.222656 1.253906 -4.265625 1.160156 -4.265625 L 0.714844 -4.265625 C 0.609375 -4.265625 0.546875 -4.207031 0.546875 -4.101562 L 0.550781 -0.164062 C 0.550781 -0.0546875 0.613281 0 0.71875 0 Z M 1.425781 0 "/></g></g><g transform="translate(13.56591, 17.61054)"><g><path d="M 2.171875 -4.355469 C 1.699219 -4.355469 1.191406 -4.265625 0.714844 -4.109375 C 0.613281 -4.074219 0.570312 -4.003906 0.609375 -3.898438 L 0.777344 -3.367188 C 0.808594 -3.261719 0.882812 -3.234375 0.988281 -3.273438 C 1.359375 -3.410156 1.746094 -3.496094 2.078125 -3.496094 C 2.578125 -3.496094 2.957031 -3.300781 2.957031 -2.746094 L 2.957031 -2.476562 C 2.652344 -2.554688 2.347656 -2.59375 2.0625 -2.59375 C 1.105469 -2.59375 0.359375 -2.136719 0.359375 -1.21875 C 0.359375 -0.332031 1.035156 0.09375 1.792969 0.09375 C 2.253906 0.09375 2.765625 -0.0585938 3.105469 -0.523438 L 3.207031 -0.144531 C 3.226562 -0.0429688 3.292969 0 3.386719 0 L 3.832031 0 C 3.941406 0 3.996094 -0.0546875 3.996094 -0.164062 L 3.996094 -2.792969 C 3.996094 -3.933594 3.175781 -4.355469 2.171875 -4.355469 Z M 2.042969 -0.664062 C 1.695312 -0.664062 1.398438 -0.84375 1.398438 -1.234375 C 1.398438 -1.683594 1.789062 -1.863281 2.304688 -1.863281 C 2.515625 -1.863281 2.730469 -1.832031 2.957031 -1.78125 L 2.957031 -1.597656 C 2.957031 -0.898438 2.425781 -0.664062 2.042969 -0.664062 Z M 2.042969 -0.664062 "/></g></g><g transform="translate(18.078591, 17.61054)"><g><path d="M 2.171875 -4.355469 C 1.699219 -4.355469 1.191406 -4.265625 0.714844 -4.109375 C 0.613281 -4.074219 0.570312 -4.003906 0.609375 -3.898438 L 0.777344 -3.367188 C 0.808594 -3.261719 0.882812 -3.234375 0.988281 -3.273438 C 1.359375 -3.410156 1.746094 -3.496094 2.078125 -3.496094 C 2.578125 -3.496094 2.957031 -3.300781 2.957031 -2.746094 L 2.957031 -2.476562 C 2.652344 -2.554688 2.347656 -2.59375 2.0625 -2.59375 C 1.105469 -2.59375 0.359375 -2.136719 0.359375 -1.21875 C 0.359375 -0.332031 1.035156 0.09375 1.792969 0.09375 C 2.253906 0.09375 2.765625 -0.0585938 3.105469 -0.523438 L 3.207031 -0.144531 C 3.226562 -0.0429688 3.292969 0 3.386719 0 L 3.832031 0 C 3.941406 0 3.996094 -0.0546875 3.996094 -0.164062 L 3.996094 -2.792969 C 3.996094 -3.933594 3.175781 -4.355469 2.171875 -4.355469 Z M 2.042969 -0.664062 C 1.695312 -0.664062 1.398438 -0.84375 1.398438 -1.234375 C 1.398438 -1.683594 1.789062 -1.863281 2.304688 -1.863281 C 2.515625 -1.863281 2.730469 -1.832031 2.957031 -1.78125 L 2.957031 -1.597656 C 2.957031 -0.898438 2.425781 -0.664062 2.042969 -0.664062 Z M 2.042969 -0.664062 "/></g></g><g transform="translate(22.591271, 17.61054)"><g><path d="M 2.855469 -4.355469 C 2.382812 -4.355469 1.871094 -4.171875 1.441406 -3.75 L 1.347656 -4.121094 C 1.320312 -4.222656 1.257812 -4.265625 1.164062 -4.265625 L 0.71875 -4.265625 C 0.613281 -4.265625 0.550781 -4.207031 0.550781 -4.101562 L 0.550781 -0.164062 C 0.550781 -0.0546875 0.613281 0 0.71875 0 L 1.425781 0 C 1.535156 0 1.589844 -0.0546875 1.589844 -0.164062 L 1.589844 -2.460938 C 1.589844 -3.070312 2.015625 -3.441406 2.539062 -3.441406 C 3.074219 -3.441406 3.398438 -3.046875 3.398438 -2.484375 L 3.398438 -0.164062 C 3.398438 -0.0546875 3.453125 0 3.5625 0 L 4.269531 0 C 4.375 0 4.4375 -0.0546875 4.4375 -0.164062 L 4.4375 -2.636719 C 4.4375 -3.472656 4.019531 -4.355469 2.855469 -4.355469 Z M 2.855469 -4.355469 "/></g></g><g transform="translate(27.535074, 17.61054)"><g><path d="M 2.171875 -4.355469 C 1.699219 -4.355469 1.191406 -4.265625 0.714844 -4.109375 C 0.613281 -4.074219 0.570312 -4.003906 0.609375 -3.898438 L 0.777344 -3.367188 C 0.808594 -3.261719 0.882812 -3.234375 0.988281 -3.273438 C 1.359375 -3.410156 1.746094 -3.496094 2.078125 -3.496094 C 2.578125 -3.496094 2.957031 -3.300781 2.957031 -2.746094 L 2.957031 -2.476562 C 2.652344 -2.554688 2.347656 -2.59375 2.0625 -2.59375 C 1.105469 -2.59375 0.359375 -2.136719 0.359375 -1.21875 C 0.359375 -0.332031 1.035156 0.09375 1.792969 0.09375 C 2.253906 0.09375 2.765625 -0.0585938 3.105469 -0.523438 L 3.207031 -0.144531 C 3.226562 -0.0429688 3.292969 0 3.386719 0 L 3.832031 0 C 3.941406 0 3.996094 -0.0546875 3.996094 -0.164062 L 3.996094 -2.792969 C 3.996094 -3.933594 3.175781 -4.355469 2.171875 -4.355469 Z M 2.042969 -0.664062 C 1.695312 -0.664062 1.398438 -0.84375 1.398438 -1.234375 C 1.398438 -1.683594 1.789062 -1.863281 2.304688 -1.863281 C 2.515625 -1.863281 2.730469 -1.832031 2.957031 -1.78125 L 2.957031 -1.597656 C 2.957031 -0.898438 2.425781 -0.664062 2.042969 -0.664062 Z M 2.042969 -0.664062 "/></g></g><g transform="translate(32.047755, 17.61054)"><g><path d="M 5.402344 -4.355469 C 4.863281 -4.355469 4.300781 -4.117188 3.949219 -3.683594 C 3.703125 -4.105469 3.246094 -4.355469 2.738281 -4.355469 C 2.308594 -4.355469 1.859375 -4.203125 1.433594 -3.78125 L 1.347656 -4.121094 C 1.320312 -4.222656 1.257812 -4.265625 1.164062 -4.265625 L 0.71875 -4.265625 C 0.613281 -4.265625 0.550781 -4.207031 0.550781 -4.101562 L 0.550781 -0.164062 C 0.550781 -0.0546875 0.613281 0 0.71875 0 L 1.425781 0 C 1.535156 0 1.589844 -0.0546875 1.589844 -0.164062 L 1.589844 -2.550781 C 1.589844 -3.070312 1.933594 -3.445312 2.453125 -3.445312 C 2.984375 -3.445312 3.234375 -3.054688 3.234375 -2.535156 L 3.234375 -0.164062 C 3.234375 -0.0546875 3.292969 0 3.402344 0 L 4.109375 0 C 4.21875 0 4.273438 -0.0546875 4.273438 -0.164062 L 4.273438 -2.550781 C 4.273438 -3.070312 4.625 -3.445312 5.136719 -3.445312 C 5.648438 -3.445312 5.90625 -3.054688 5.90625 -2.535156 L 5.90625 -0.164062 C 5.90625 -0.0546875 5.96875 0 6.070312 0 L 6.78125 0 C 6.890625 0 6.945312 -0.0546875 6.945312 -0.164062 L 6.945312 -2.707031 C 6.945312 -3.632812 6.359375 -4.355469 5.402344 -4.355469 Z M 5.402344 -4.355469 "/></g></g><g transform="translate(39.501736, 17.61054)"><g/></g><g transform="translate(41.975652, 17.61054)"><g><path d="M 1.566406 0 C 1.675781 0 1.734375 -0.0546875 1.734375 -0.164062 L 1.734375 -3.449219 L 3.488281 -1.164062 C 3.5625 -1.066406 3.652344 -1.066406 3.722656 -1.164062 L 5.488281 -3.457031 L 5.488281 -0.164062 C 5.488281 -0.0546875 5.542969 0 5.652344 0 L 6.433594 0 C 6.542969 0 6.601562 -0.0546875 6.601562 -0.164062 L 6.601562 -6.054688 C 6.601562 -6.367188 6.382812 -6.433594 6.195312 -6.1875 L 3.605469 -2.765625 L 1.023438 -6.1875 C 0.835938 -6.4375 0.621094 -6.367188 0.621094 -6.054688 L 0.621094 -0.164062 C 0.621094 -0.0546875 0.675781 0 0.785156 0 Z M 1.566406 0 "/></g></g><g transform="translate(49.195941, 17.61054)"><g><path d="M 2.503906 -4.355469 C 1.285156 -4.355469 0.367188 -3.480469 0.367188 -2.132812 C 0.367188 -0.765625 1.351562 0.09375 2.546875 0.09375 C 3.195312 0.09375 3.828125 -0.179688 4.304688 -0.679688 C 4.386719 -0.765625 4.386719 -0.847656 4.308594 -0.90625 L 3.914062 -1.339844 C 3.835938 -1.402344 3.773438 -1.398438 3.699219 -1.324219 C 3.378906 -1 2.96875 -0.824219 2.574219 -0.824219 C 1.953125 -0.824219 1.410156 -1.242188 1.382812 -1.988281 L 4.414062 -1.988281 C 4.53125 -1.988281 4.59375 -2.027344 4.59375 -2.171875 C 4.59375 -3.480469 3.71875 -4.355469 2.503906 -4.355469 Z M 2.523438 -3.496094 C 2.960938 -3.496094 3.386719 -3.257812 3.511719 -2.714844 L 1.453125 -2.714844 C 1.609375 -3.261719 2.09375 -3.496094 2.523438 -3.496094 Z M 2.523438 -3.496094 "/></g></g><g transform="translate(54.139744, 17.61054)"><g><path d="M 4.992188 -6.023438 C 4.992188 -6.132812 4.933594 -6.1875 4.828125 -6.1875 L 4.117188 -6.1875 C 4.007812 -6.1875 3.953125 -6.132812 3.953125 -6.023438 L 3.957031 -3.8125 C 3.574219 -4.164062 3.058594 -4.355469 2.523438 -4.355469 C 1.292969 -4.355469 0.363281 -3.359375 0.363281 -2.132812 C 0.363281 -0.90625 1.292969 0.09375 2.523438 0.09375 C 3.140625 0.09375 3.707031 -0.15625 4.085938 -0.597656 L 4.207031 -0.144531 C 4.230469 -0.0429688 4.296875 0 4.386719 0 L 4.835938 0 C 4.941406 0 5 -0.0546875 5 -0.164062 Z M 2.695312 -0.839844 C 1.980469 -0.839844 1.402344 -1.417969 1.402344 -2.132812 C 1.402344 -2.847656 1.980469 -3.429688 2.695312 -3.429688 C 3.414062 -3.429688 3.992188 -2.847656 3.992188 -2.132812 C 3.992188 -1.417969 3.414062 -0.839844 2.695312 -0.839844 Z M 2.695312 -0.839844 "/></g></g><g transform="translate(59.691952, 17.61054)"><g><path d="M 1.066406 -4.679688 C 1.429688 -4.679688 1.699219 -4.953125 1.699219 -5.316406 C 1.699219 -5.671875 1.429688 -5.957031 1.066406 -5.957031 C 0.707031 -5.957031 0.429688 -5.671875 0.429688 -5.316406 C 0.429688 -4.953125 0.707031 -4.679688 1.066406 -4.679688 Z M 1.425781 0 C 1.535156 0 1.589844 -0.0546875 1.589844 -0.164062 L 1.589844 -4.101562 C 1.589844 -4.207031 1.535156 -4.265625 1.425781 -4.265625 L 0.71875 -4.265625 C 0.613281 -4.265625 0.550781 -4.207031 0.550781 -4.101562 L 0.550781 -0.164062 C 0.550781 -0.0546875 0.613281 0 0.71875 0 Z M 1.425781 0 "/></g></g><g transform="translate(61.843534, 17.61054)"><g><path d="M 2.171875 -4.355469 C 1.699219 -4.355469 1.191406 -4.265625 0.714844 -4.109375 C 0.613281 -4.074219 0.570312 -4.003906 0.609375 -3.898438 L 0.777344 -3.367188 C 0.808594 -3.261719 0.882812 -3.234375 0.988281 -3.273438 C 1.359375 -3.410156 1.746094 -3.496094 2.078125 -3.496094 C 2.578125 -3.496094 2.957031 -3.300781 2.957031 -2.746094 L 2.957031 -2.476562 C 2.652344 -2.554688 2.347656 -2.59375 2.0625 -2.59375 C 1.105469 -2.59375 0.359375 -2.136719 0.359375 -1.21875 C 0.359375 -0.332031 1.035156 0.09375 1.792969 0.09375 C 2.253906 0.09375 2.765625 -0.0585938 3.105469 -0.523438 L 3.207031 -0.144531 C 3.226562 -0.0429688 3.292969 0 3.386719 0 L 3.832031 0 C 3.941406 0 3.996094 -0.0546875 3.996094 -0.164062 L 3.996094 -2.792969 C 3.996094 -3.933594 3.175781 -4.355469 2.171875 -4.355469 Z M 2.042969 -0.664062 C 1.695312 -0.664062 1.398438 -0.84375 1.398438 -1.234375 C 1.398438 -1.683594 1.789062 -1.863281 2.304688 -1.863281 C 2.515625 -1.863281 2.730469 -1.832031 2.957031 -1.78125 L 2.957031 -1.597656 C 2.957031 -0.898438 2.425781 -0.664062 2.042969 -0.664062 Z M 2.042969 -0.664062 "/></g></g></g></svg>